# xmcd CD database file
#
# Track frame offsets:
#	150
#	24150
#	37467
#	52545
#	74071
#	90370
#	93681
#	115973
#	136581
#	153067
#
# Disc length: 2542 seconds
#
# Revision: 0
# Processed by: cddbd v1.5.2PL0 Copyright (c) Steve Scherf et al.
# Submitted via: CDex 1.70beta2
#
DISCID=7709ec0a
DTITLE=Eva Scow and Dusty Brough - Sharon by the Sea
DYEAR=2007
DGENRE=Jazz
TTITLE0=Bird with Beastlike Qualities
TTITLE1=Theoretically Speaking
TTITLE2=Utah
TTITLE3=Rodolfo
TTITLE4=Pica Pica
TTITLE5=Best in Show
TTITLE6=Sharon by the Sea
TTITLE7=Sketches of Terry
TTITLE8=Gateway Chronicles
TTITLE9=Saturday
EXTD=YEAR: 2007
EXTT0=
EXTT1=
EXTT2=
EXTT3=
EXTT4=
EXTT5=
EXTT6=
EXTT7=
EXTT8=
EXTT9=
PLAYORDER=
